# xmcd
#
# Track frame offsets:
#        150
#        14515
#        31775
#        48755
#        66097
#
# Disc length: 1172 seconds
#
# Revision: 0
# Processed by: cddbd v1.5.1PL0 Copyright (c) Steve Scherf et al.
# Submitted via: ExactAudioCopy v0.95a3
#
DISCID=34049205
DTITLE=YELLOWCARD - The Underdog EP
DYEAR=2003
DGENRE=
TTITLE0=Underdog
TTITLE1=Avondale
TTITLE2=Finish Line
TTITLE3=Powder
TTITLE4=Rocket
EXTD=
EXTT0=
EXTT1=
EXTT2=
EXTT3=
EXTT4=
PLAYORDER=
